<svg xmlns="http://www.w3.org/2000/svg" viewBox="0 0 230 230"><g fill="none"><path fill="#F74D3B" d="M152.353 73.485c-33.976-19.616-81.702-.56-106.599 42.564-24.897 43.123-17.537 93.983 16.439 113.599l90.16-156.163Z"/><path fill="#FFAF3F" d="M77.562 203.026c33.975 19.616 81.7.56 106.598-42.563 24.898-43.123 17.538-93.984-16.438-113.6l-90.16 156.163Z"/><path fill="#7BAB93" d="M126.112 61.932c-1.298-26.774 20.765-48.837 47.539-47.54 1.297 26.775-20.765 48.837-47.54 47.54Zm-2.865-.003C88.41 63.617 59.701 34.909 61.39.07c34.839-1.688 63.546 27.02 61.858 61.858Z"/></g></svg>