<svg xmlns="http://www.w3.org/2000/svg" viewBox="0 0 660 100" width="660" height="100">
    <path fill="#3b82f6" d="M120 0l-19 100-101-100z"/>
    <path fill="#ec4899" d="M174 0l-19 100-101-100z"/>
    <path fill="#4c1d95" d="M120 0h-66l55.5 55z"/>
    <path d="M232.9 66.4l-5.7 32.6h-27.2l17.1-97.5h40.6c10.3 0 18.1 2.3 23.4 6.8 5.3 4.5 8 10.8 8 18.7 0 2-.2 4.4-.7 7.2-1.1 6.2-3.5 11.7-7.1 16.5-3.6 4.9-8.5 8.7-14.4 11.5-6 2.8-12.9 4.2-20.6 4.2h-13.4zm23.9-24.3c2.3-1.9 3.7-4.6 4.2-8 .2-1.3.3-2.2.3-2.8 0-5.3-3.4-8-10.2-8h-10.4l-3.9 21.7h10.4c4.1 0 7.3-.9 9.6-2.9zM371.4 8.5c5.3 4.6 8 10.8 8 18.5 0 1.2-.2 3.2-.6 5.9-1.3 6.9-4.3 12.8-9 17.8s-10.8 8.5-18.3 10.5l15.9 37.8h-30l-13.5-36h-2.8l-6.2 36h-27.2l17.1-97.5h43c10.4 0 18.3 2.3 23.6 7zm-47 36.4h13.3c7.6 0 12-3.4 13.3-10.2.1-.6.1-1.3.1-2.3 0-5.3-3.2-8-9.5-8h-13.4l-3.8 20.5zM461.7 5.4c6.6 3.6 11.8 8.6 15.3 15.1s5.3 14 5.3 22.5c0 3.5-.4 7.4-1.1 11.8-1.6 8.8-4.8 16.6-9.6 23.5-4.8 6.8-11 12.2-18.6 16-7.6 3.8-16 5.7-25.4 5.7-9.4 0-17.4-1.8-24.1-5.3-6.7-3.5-11.8-8.5-15.3-14.9s-5.3-13.8-5.3-22.4c0-4.4.4-8.5 1.1-12.3 1.6-8.9 4.8-16.8 9.7-23.6 4.9-6.8 11.1-12.1 18.7-15.9 7.6-3.7 16.1-5.6 25.5-5.6 9.2 0 17.1 1.8 23.8 5.4zm-42.6 26.1c-4.5 4.3-7.4 10-8.7 17.3-.4 1.9-.6 4-.6 6.3 0 6.2 1.7 11 5 14.5 3.4 3.5 8.2 5.2 14.6 5.2 6.5 0 12.1-2.2 16.7-6.5s7.4-10.1 8.6-17.2c.5-2.6.7-4.8.7-6.6 0-6.1-1.7-10.8-5.1-14.3-3.4-3.4-8.2-5.2-14.5-5.2-6.6.1-12.1 2.2-16.7 6.5zM515.9 1.5l9.8 70.2 34.3-70.2h28.9l-50.6 97.5h-35l-16.3-97.5h28.9zM620.5 23.1l-2.9 16.1h31.8l-3.7 20.5h-31.7l-3 17.6h35.8l-3.9 21.7h-63l17.1-97.5h63l-3.7 21.6h-35.8z"/>
</svg>
